<svg xmlns="http://www.w3.org/2000/svg" viewBox="0 0 922.75 298.07"><g fill="#fff"><path d="M166.8 259.67c-5.67 0-8.84-2.42-10.5-4.45s-3.43-5.66-2.3-11.32l30.45-142.75c1.6-7.88 7.3-12.58 15.28-12.58h28c5.67 0 8.84 2.42 10.5 4.45s3.43 5.66 2.3 11.32L210.08 247.1c-1.6 7.88-7.3 12.58-15.28 12.58z"/><path d="M227.68 96.57q6.2 0 5 6.2l-30.44 142.7q-1.25 6.2-7.45 6.2h-28q-6.2 0-5-6.2l30.44-142.7q1.24-6.2 7.45-6.2h28m0-16h-28C188 80.57 179 88 176.6 99.5L146.2 242.13c0 .06 0 .13-.05.2-1.83 9.18 1.7 15.2 4 18s7.43 7.38 16.7 7.38h28c11.7 0 20.76-7.43 23.1-19l30.42-142.6c0-.07 0-.13.05-.2 1.83-9.2-1.7-15.2-4-18s-7.44-7.37-16.7-7.37z"/><path d="M58.86 259.67c-23.68 0-50.86-4-50.86-35.5 0-5.4.76-11.22 8.46-47.76C23.86 140.88 42.7 127 83.7 127h83.86c5.1 0 8 2.22 9.55 4.08s3.2 5.2 2.24 10.37l-5 23.94c0 .1-.05.2-.07.3-1.73 6.9-6.87 11-13.76 11H80.8c-3.6 0-5.8.36-6.5 1.08-1.63 1.62-3 7.94-3.5 10l-4.35 21.92a29.16 29.16 0 0 0 3.79.2H150c5.1 0 8 2.22 9.56 4.08s3.2 5.2 2.24 10.36l-5 23.94a2.82 2.82 0 0 1-.07.31c-1.73 6.9-6.95 11-14 11z"/><path d="M167.57 135c3.3 0 4.55 1.66 3.93 5l-5 23.78c-.83 3.3-2.7 5-6 5H80.8c-11.8 0-14.7 3.3-17.8 17.38-3.93 18.4-4.55 21.5-4.55 24 0 6.2 3.3 7.86 11.8 7.86H150c3.32 0 4.56 1.66 3.94 5l-5 23.8q-1.25 5-6.2 5H58.86C28 251.67 16 243.6 16 224.17c0-4.55.62-9.72 8.28-46.12 6.42-30.82 21.33-43 59.43-43h83.86m0-16H83.7c-22.85 0-39.1 4.17-51.14 13.1s-19.77 22.6-24 42.65C.7 212.38 0 217.93 0 224.17c0 15.5 5.77 27.08 17.16 34.46 9.5 6.17 22.76 9 41.7 9h83.86a21.89 21.89 0 0 0 21.73-17.07 9.51 9.51 0 0 0 .14-.62l5.06-24.1c1.63-8.65-1.77-14.33-3.94-16.95A19.83 19.83 0 0 0 150 202H76l2.64-12.44c.48-2.2.88-3.72 1.2-4.76h80.72c10.63 0 18.88-6.54 21.52-17.07 0-.2.1-.4.14-.62l5.06-24.1c1.63-8.65-1.77-14.34-3.94-17a19.81 19.81 0 0 0-15.71-7zm97.93 140.62c-23.68 0-50.85-4-50.85-35.3a84.81 84.81 0 0 1 2-17.4l14.35-67.4c1.57-7.83 7.3-12.55 15.28-12.55h27.92c5.68 0 8.85 2.42 10.52 4.45s3.43 5.67 2.3 11.33l-12.23 57.38c-.65 3.13-1.15 5.72-1.36 7.66H328c3.65 0 5.87-.37 6.6-1.1 1.1-1.1 2.23-4.4 3.36-9.9l12.2-57.3c1.6-7.88 7.3-12.58 15.3-12.58h28c5.67 0 8.84 2.42 10.5 4.45s3.43 5.67 2.3 11.33L392 210.3c-7.63 35.53-26.55 49.36-67.45 49.36z"/><path d="M393.46 135q6.23 0 5 6.2l-14.28 67.4c-6.63 30.82-21.54 43-59.63 43h-59c-30.85 0-42.85-7.86-42.85-27.3a76.19 76.19 0 0 1 1.86-15.72l14.3-67.4q1.15-6.2 7.4-6.2h27.95q6.2 0 5 6.2l-12.2 57.3a60.41 60.41 0 0 0-1.65 11.17c0 5 2.48 6.2 10.14 6.2H328c11.8 0 14.9-3.3 17.8-17.37l12.22-57.28q1.24-6.2 7.45-6.2h27.95m0-16h-27.9c-11.7 0-20.76 7.43-23.12 18.94l-12.2 57.32c-.43 2.1-.8 3.57-1.1 4.6H283l11.8-55.5c1.84-9.2-1.7-15.2-4-18s-7.33-7.37-16.6-7.37h-27.95c-11.7 0-20.76 7.44-23.12 18.95l-14.27 67.36a91.26 91.26 0 0 0-2.21 19c0 15.5 5.8 27.1 17.22 34.4 9.47 6.07 22.7 8.9 41.63 8.9h59c22.83 0 39.08-4.16 51.14-13.1s19.82-22.52 24.13-42.55l14.3-67.64c1.84-9.2-1.7-15.2-4-18s-7.43-7.38-16.7-7.38zm395.3 140.67c-23.68 0-50.86-4-50.86-35.5 0-5.4.76-11.23 8.46-47.76 7.4-35.52 26.25-49.37 67.25-49.37h61.9c11.75 0 39.26 0 39.26 28.27 0 4.94-.63 9.82-7 38.68-2 9.76-7 15.55-15.17 17.55a10.53 10.53 0 0 1 3 2.5c1.56 1.88 3.22 5.2 2.26 10.36 0 .06-5 24-5 24a2.82 2.82 0 0 1-.07.31c-1.73 6.9-6.95 11-14 11z"/><path d="M875.5 135c22.77 0 31.26 5.58 31.26 20.27 0 4.14-.62 8.9-6.83 37-1.86 9.1-6.2 12-14.5 12h-96.48a37.15 37.15 0 0 0-1 6.83c0 4.75 2.9 6.82 12.22 6.82h85.93c3.3 0 4.55 1.66 3.93 5l-5 23.8q-1.25 5-6.2 5h-90.08c-30.85 0-42.86-8.06-42.86-27.5 0-4.55.62-9.72 8.28-46.12 6.42-30.82 21.33-43 59.43-43h61.9m-81.37 44.88H861a2.19 2.19 0 0 0 2.49-2.07c1.66-7.44 1.66-8.06 1.66-8.7 0-2.27-1.25-3.3-4.15-3.3h-49.7c-11.8 0-14.9 3.3-17.18 14.06M875.5 119h-61.9c-22.85 0-39.1 4.17-51.14 13.1s-19.77 22.6-24 42.65c-7.9 37.6-8.62 43.13-8.62 49.38 0 15.5 5.77 27.08 17.16 34.46 9.5 6.17 22.76 9 41.7 9h90.12a21.89 21.89 0 0 0 21.73-17.07c.05-.2.1-.4.14-.62l5-23.78c0-.12.05-.23.07-.34a21.25 21.25 0 0 0-.81-11.44c5.33-4.15 8.94-10.45 10.67-18.77 6.56-29.73 7.18-34.68 7.18-40.35 0-16.3-7.8-24.8-14.37-29.06-7.67-5-17.82-7.2-32.9-7.2z"/><path d="M629 259.67c-23.68 0-50.86-4-50.86-35.5 0-5.4.76-11.23 8.45-47.76 7.4-35.52 26.3-49.4 67.28-49.4h61.9c11.75 0 39.27 0 39.27 28.27 0 4.92-.64 9.8-7 38.68-2 9.76-7 15.55-15.17 17.55a10.6 10.6 0 0 1 3 2.51c1.56 1.88 3.22 5.2 2.25 10.36l-5 23.94c0 .1 0 .2-.07.3-1.73 6.9-7 11-14 11z"/><path d="M715.78 135c22.77 0 31.27 5.58 31.27 20.27 0 4.14-.63 8.9-6.84 37-1.86 9.1-6.2 12-14.5 12h-96.5a36.73 36.73 0 0 0-1 6.83c0 4.75 2.9 6.82 12.2 6.82h85.93c3.3 0 4.56 1.66 3.93 5l-5 23.8q-1.23 5-6.2 5H629c-30.86 0-42.86-8.06-42.86-27.5 0-4.55.62-9.72 8.28-46.12 6.42-30.82 21.32-43 59.42-43h61.9m-81.37 44.88h66.87a2.18 2.18 0 0 0 2.49-2.07c1.66-7.44 1.66-8.06 1.66-8.7 0-2.27-1.24-3.3-4.15-3.3H651.6c-11.8 0-14.9 3.3-17.18 14.06M715.78 119h-61.9c-22.85 0-39.1 4.17-51.13 13.1s-19.78 22.6-24 42.65c-7.9 37.6-8.6 43.13-8.6 49.38 0 15.5 5.77 27.08 17.15 34.46 9.5 6.17 22.76 9 41.7 9h90.06a21.88 21.88 0 0 0 21.74-17.09c0-.2.1-.4.14-.6l5.06-24.1a21.32 21.32 0 0 0-.8-11.46c5.33-4.15 8.93-10.45 10.66-18.76 6.24-28.28 7.2-34.32 7.2-40.36 0-16.3-7.82-24.8-14.37-29.06-7.68-5-17.82-7.2-32.9-7.2zm-291.85 15.67c-2.93 0-5.93 0-8.6-.1a16.34 16.34 0 0 1-15.73-19.68c3.84-18.2 9-37.5 20.67-55.15a14.79 14.79 0 0 1 2.67-3c4.46-13.92 16.14-36.3 46.16-48.1a9.47 9.47 0 0 1 9.9 15.77 117.81 117.81 0 0 0-12.4 13.32h.6c9.46-10.78 25.5-23 50.8-25.63.34 0 .68-.05 1-.05a9.47 9.47 0 0 1 4.34 17.86 101.09 101.09 0 0 0-21.67 14.66c8.35 7.1 13.2 18 13.4 30.37a48.56 48.56 0 0 1-19.45 39.7c-20.72 15.46-44.55 18.68-60.66 19.76-3.28.17-6.78.27-11.02.27z"/><path d="M472.58 16a1.48 1.48 0 0 1 1 2.55c-7.17 6.66-19.2 19.2-23.24 31.7a70.73 70.73 0 0 1 12.13-3.78 53.79 53.79 0 0 1 1.75-.33 46.71 46.71 0 0 1 5-.58 10.64 10.64 0 0 0-1.89 5.22 49.09 49.09 0 0 1 3.67-5.29h.1c8.15-10.23 23-22.86 47.74-25.47h.17a1.46 1.46 0 0 1 .65 2.76c-8.5 4.42-23 13.05-30.34 23.68 2 .55 2.75 1.33 4.77 2.37l.14.06a.63.63 0 0 1 .17.13c17.46 12.13 17.48 43.5-3.55 59.18-16.84 12.52-36.17 16.8-56.42 18.17-3.46.24-6.94.3-10.5.3-2.76 0-5.58 0-8.46-.1a8.34 8.34 0 0 1-8-10c4.05-19.24 9.15-36.73 19.5-52.38a10 10 0 0 1 2.84-2.59h.07C433.1 50 443 27.5 472 16.1a1.42 1.42 0 0 1 .55-.11m0-16a17.51 17.51 0 0 0-6.39 1.21c-15.43 6.07-28.1 15.42-37.58 27.8A84.22 84.22 0 0 0 416 52.35a22.48 22.48 0 0 0-2.38 3C401.2 74.1 395.8 94.27 391.8 113.27a24.33 24.33 0 0 0 23.44 29.32l8.7.1c4.42 0 8.1-.1 11.56-.34 35.77-2.4 54.18-13.32 64.92-21.33a56.59 56.59 0 0 0 22.66-46.24 50.44 50.44 0 0 0-9.76-29.42A110.33 110.33 0 0 1 527 37a17.47 17.47 0 0 0-8-33 16.38 16.38 0 0 0-1.85.1A89.55 89.55 0 0 0 489 11.63l-.2-.52A17.37 17.37 0 0 0 472.58 0z"/><path d="M381.56 290.07a8 8 0 0 1-7.19-11.49c1-2.13 3.26-4.9 9.38-12.33 4.47-5.42 9.9-12 12.82-16.33.17-5.07-1-12.22-2.25-19.18-1.55-8.62-3.14-17.52-2.55-25.82 1.72-24 18.78-59.17 22.18-66a23.93 23.93 0 0 1 12-11.77c1.8-.84 6.45-2.47 16.78-3.7 17.82-2.44 36.14-6.4 49.5-18.78 10.4-9.6 21.27-12.5 34.4-13.9 9.12-1 18.44-2.35 27.45-3.7l18.5-2.63a104.24 104.24 0 0 1 13.32-.93c1.3 0 2.57 0 3.82.1 9.06.45 14.08 4.5 16.7 7.83s5.5 9.43 3.7 18.78c-4 20.87-16.86 41.48-34.86 56.9a21.89 21.89 0 0 1 9.15 8.8c3.55 6.43 3.54 14.46 0 22a95 95 0 0 1-30.58 36.66c-23 16.64-47.7 25.07-73.4 25.07h-5.05l-15.9.2a9.32 9.32 0 0 1-3.26 5c-24.88 19.67-52.67 23.82-74.1 25.24zM493.2 200.9a57.11 57.11 0 0 1-1.62 7.18 78.39 78.39 0 0 0 10.1-1.32c4.64-1 9.8-4.5 14.17-7.67l-22.33-.2-.32 2zm4.2-48.45h3.87c3.6 0 6.55-.1 9.24-.36 8.27-.74 15-4.1 20-10-6.75.37-13.66 1-20.34 1.63l-11 1-3.6.3a31.83 31.83 0 0 1 1.83 7.44z"/><path d="M585.94 91.54l3.42.08c10.06.5 14.85 7.1 12.92 17.1-4.63 24-22.62 48.47-46.95 62.92 3.86.22 6.75.24 9.6.6 11.93 1.44 17.36 11.43 12.22 22.3a86.77 86.77 0 0 1-28 33.6C528.6 243 506 251.7 480.4 251.7h-5.07c-12.24 0-31.7.54-32.1.78a1.08 1.08 0 0 0 .32 2l7.1 1.68a1.4 1.4 0 0 1 .57 2.45c-20.57 16.26-43.47 21.8-69.68 23.53 1.62-3.32 17.84-21.23 22.84-29.54.66-5.9-.5-13.7-2.2-23.2-1.45-8.13-3-16.54-2.44-23.84 1.64-23 19.35-58.94 21.36-63 2.22-4.44 5.17-6.84 8.13-8 0 0 3.37-1.75 14.55-3.08 19.6-2.68 39.14-7.17 53.92-20.83 9.1-8.42 18.6-10.64 29.8-11.83 15.43-1.65 30.75-4.34 46.14-6.34a95.3 95.3 0 0 1 12.29-.87m-93.8 68.8l9.14.14c3.36 0 6.67-.1 10-.4 10.58-.94 19.83-5.58 26.43-14.12a14.2 14.2 0 0 0 2.2-5.23 4.74 4.74 0 0 0-3.14-5.71 16.83 16.83 0 0 0-5-1h-.44c-11 .55-21.88 1.78-32.82 2.68l-29.32 2.24c6 1.13 11.2 2.28 13.65 3.26 5.15 2.06 7.08 8.23 7.06 18.05h2.27m-12.64 56.3c8.3-.3 16.2-.48 23.83-2.06 6.63-1.38 12.88-5.85 18.55-10 2.3-1.67 4-6.44 3.3-9.18-.47-2-5.16-4.26-8-4.3l-30.5-.24-1.37 8.76a54.26 54.26 0 0 1-5.82 17M585.94 75.54a111.13 111.13 0 0 0-14.35 1l-18.64 2.65-27.13 3.65c-12.72 1.35-26.25 4.23-39 16-11.73 10.84-28.6 14.45-45.1 16.7-10.33 1.23-15.95 2.94-19 4.3a31.76 31.76 0 0 0-16 15.53c-3.52 7-21.18 43.47-23 69-.66 9.3 1.1 19.12 2.65 27.8a132.82 132.82 0 0 1 2.12 15.26c-2.92 4-7.45 9.47-11 13.75-6.6 8-8.94 10.9-10.4 13.93a16 16 0 0 0 14.39 23h1.06c22.6-1.5 51.93-5.9 78.54-27a17.78 17.78 0 0 0 3.23-3.32l11-.1h5c27.43 0 53.7-8.94 78.1-26.6a102.8 102.8 0 0 0 33.13-39.72c4.7-9.9 4.6-20.6-.2-29.3a29.19 29.19 0 0 0-3.88-5.44c15.7-15.65 26.73-35.17 30.53-54.9 1.85-9.6 0-18.56-5.25-25.23s-13.17-10.4-22.6-10.88c-1.37-.06-2.8-.1-4.2-.1z"/></g><path d="M171.5 140l-5 23.78c-.83 3.3-2.7 5-6 5H80.8c-11.8 0-14.7 3.3-17.8 17.38-3.93 18.4-4.55 21.5-4.55 24 0 6.2 3.3 7.86 11.8 7.86H150c3.32 0 4.56 1.66 3.94 5l-5 23.8q-1.25 5-6.2 5H58.86C28 251.67 16 243.6 16 224.17c0-4.55.62-9.72 8.28-46.12 6.42-30.82 21.33-43 59.43-43h83.86c3.3 0 4.55 1.66 3.93 5zm61.15-37.23l-30.44 142.7q-1.25 6.2-7.45 6.2h-28q-6.2 0-5-6.2l30.44-142.7q1.24-6.2 7.45-6.2h28q6.2 0 5 6.2zm165.78 38.47l-14.28 67.4c-6.63 30.82-21.54 43-59.63 43h-59c-30.85 0-42.85-7.86-42.85-27.3a76.19 76.19 0 0 1 1.86-15.72l14.3-67.4Q240 135 246.25 135h27.95q6.2 0 5 6.2l-12.2 57.3a60.41 60.41 0 0 0-1.65 11.17c0 5 2.48 6.2 10.14 6.2H328c11.8 0 14.9-3.3 17.8-17.37l12.22-57.28q1.24-6.2 7.45-6.2h27.95q6.23 0 5 6.2zM740.2 192.3c-1.86 9.1-6.2 12-14.5 12h-96.5a36.73 36.73 0 0 0-1 6.83c0 4.75 2.9 6.82 12.2 6.82h85.93c3.3 0 4.56 1.66 3.93 5l-5 23.8q-1.23 5-6.2 5H629c-30.86 0-42.86-8.06-42.86-27.5 0-4.55.62-9.72 8.28-46.12 6.42-30.82 21.32-43 59.42-43h61.9c22.77 0 31.27 5.58 31.27 20.27 0 4.14-.63 8.9-6.84 37zm-38.93-26.46h-49.7c-11.8 0-14.9 3.3-17.18 14.06h66.87a2.18 2.18 0 0 0 2.49-2.07c1.66-7.44 1.66-8.06 1.66-8.7 0-2.27-1.24-3.3-4.15-3.3zm198.64 26.46c-1.86 9.1-6.2 12-14.5 12h-96.48a37.15 37.15 0 0 0-1 6.83c0 4.75 2.9 6.82 12.22 6.82h85.93c3.3 0 4.55 1.66 3.93 5l-5 23.8q-1.25 5-6.2 5h-90.08c-30.85 0-42.86-8.06-42.86-27.5 0-4.55.62-9.72 8.28-46.12 6.42-30.82 21.33-43 59.43-43h61.9c22.77 0 31.26 5.58 31.26 20.27 0 4.14-.62 8.9-6.83 37zM861 165.85h-49.7c-11.8 0-14.9 3.3-17.18 14.06H861a2.19 2.19 0 0 0 2.49-2.07c1.66-7.44 1.66-8.06 1.66-8.7 0-2.27-1.25-3.3-4.15-3.3z" fill="#0b1f40"/><path d="M404.13 268.35s49.43 4.33 71.76-113.53a11.07 11.07 0 0 0-9-13c-29.4-4.94-34.13-8.52-39.7 1.72-6.2 11.42-26.6 53.57-17.6 93.13 2.56 12.52 3 23.9-5.45 31.68z" fill="#36d48f"/><path d="M428.75 143.42S415 216.65 428.38 246c0 0-3.63 8.38-15.63 11.38 0 0-13-42-7-61s23-52.96 23-52.96z" fill="#0b1f40" opacity=".27"/><path d="M413.67 256.45s33-40.9 45.13-112.9c0 0 8.8-3.6 7.24 9.35s-13.64 96.83-52.37 103.54z" fill="#fff"/><path d="M434.42 126.36c20.25-1.35 39.62-5.65 56.42-18.18 21-15.7 21-47.05 3.55-59.18a.63.63 0 0 0-.17-.13l-.14-.06c-2-1-2.75-1.82-4.77-2.37 7.37-10.63 21.85-19.26 30.34-23.68a1.46 1.46 0 0 0-.82-2.75c-24.74 2.6-39.6 15.24-47.74 25.47h-.1a49.09 49.09 0 0 0-3.73 5.29 10.64 10.64 0 0 1 1.89-5.22 46.71 46.71 0 0 0-5 .58 53.79 53.79 0 0 0-1.75.33 70.73 70.73 0 0 0-12.13 3.78c4-12.48 16.07-25 23.24-31.7a1.46 1.46 0 0 0-1.52-2.44c-29 11.4-38.9 33.9-42.14 45.42h-.08a10.05 10.05 0 0 0-2.78 2.64c-10.36 15.65-15.46 33.14-19.5 52.38a8.34 8.34 0 0 0 8 10c6.5.13 12.76.23 18.93-.2z" fill="#0b1f40"/><path d="M458.7 81.08c2.8-4.15 7.8-7.42 12.5-9.5 5.5-2.43 10.9-.48 14 5.1 3 5.4 1.36 13.2-3.67 16.68-8.6 6-18.35 7.3-30.22 6.48 2.67-7.05 3.94-13.63 7.38-18.75z" fill="#fff"/><path d="M564.94 172.24c-2.86-.35-5.75-.37-9.6-.6 24.33-14.45 42.32-38.88 46.95-62.92 1.93-10-2.86-16.6-12.92-17.1a88.87 88.87 0 0 0-15.71.79l-46.14 6.34c-11.2 1.2-20.7 3.4-29.8 11.83-14.78 13.66-34.32 18.15-53.92 20.83-11.18 1.33-14.55 3.08-14.55 3.08-3 1.2-5.9 3.6-8.13 8-2 4-19.72 40-21.36 63-.52 7.3 1 15.7 2.44 23.84 1.7 9.5 2.87 17.3 2.2 23.2-5 8.3-21.22 26.22-22.84 29.54 26.2-1.73 49.1-7.27 69.68-23.53a1.4 1.4 0 0 0-.57-2.45l-7.1-1.68a1.08 1.08 0 0 1-.32-2c.43-.27 24.27-.9 35.76-.76 26.15.32 49.22-8.45 70.1-23.55a86.88 86.88 0 0 0 28-33.6c5.17-10.83-.26-20.82-12.2-22.26zm-151.72 61.8l-1.13-6.5-1.73-10.64a110.01 110.01 0 0 0 6.68 5.33 132 132 0 0 0 19.14 11.67c-11 16-21.1 21.92-22.2 22.53 1.32-6.82.5-14.67-.77-22.4zm16.9-87c1.06-2.13 2.24-3 3.27-3.32a3.35 3.35 0 0 1 .9-.14c.38 0 20.56 3.12 29.44 4.68-.87 8.87-2.08 17.06-3.57 24.62-12 .2-29.08-3.23-36-4.75-1-.4-2-.82-3-1.28 4.48-10.86 8.6-19.12 8.96-19.86zm-12.6 29.22a47.48 47.48 0 0 0 7.72 6.5c6.57 4.48 16.33 8.93 30 10.2A165.14 165.14 0 0 1 446 217a81.4 81.4 0 0 1-26-6.62 68.86 68.86 0 0 1-10.08-5.59c.86-8.46 4-18.88 7.6-28.55zm104.36 28.37c-5.67 4.13-11.92 8.6-18.55 10-7.62 1.58-15.52 1.76-23.83 2.06a54.26 54.26 0 0 0 5.82-17l1.37-8.76 30.5.24c2.85 0 7.54 2.3 8 4.3.66 2.68-1 7.45-3.3 9.12zm18-63.86a14.2 14.2 0 0 1-2.2 5.23c-6.6 8.54-15.85 13.18-26.43 14.12a172.55 172.55 0 0 1-19.09.25h-2.27c0-9.82-1.9-16-7.06-18.05-2.44-1-7.63-2.13-13.65-3.26l29.32-2.24c10.94-.9 21.86-2.13 32.82-2.68a15.64 15.64 0 0 1 5.43 1 4.74 4.74 0 0 1 3.12 5.6z" fill="#0b1f40"/></svg>